<?xml version="1.0" encoding="utf-8"?>
<!-- Generator: Adobe Illustrator 24.0.2, SVG Export Plug-In . SVG Version: 6.00 Build 0)  -->
<svg version="1.1" id="Layer_1" xmlns="http://www.w3.org/2000/svg" xmlns:xlink="http://www.w3.org/1999/xlink" x="0px" y="0px"
	 viewBox="0 0 110 110" style="enable-background:new 0 0 110 110;" xml:space="preserve">
<style type="text/css">
	.st0{fill:#E4FFEE;}
	.st1{fill:#3F4096;}
</style>
<path class="st0" d="M75,0H35C15.7,0,0,15.7,0,35v40c0,19.3,15.7,35,35,35h40c19.3,0,35-15.7,35-35V35C110,15.7,94.3,0,75,0z"/>
<g id="XMLID_779_">
	<g id="XMLID_484_">
		<path id="XMLID_581_" class="st1" d="M79.7,44.2H50.6c1.3-1.5,2.2-3.6,2.2-5.8c0-4.9-4-8.8-8.8-8.8s-8.8,4-8.8,8.8
			c0,2.2,0.8,4.2,2.2,5.8h-7c-4.2,0-7.6,3.4-7.6,7.6v9c0,0.8,0.7,1.5,1.5,1.5s1.5-0.7,1.5-1.5v-9c0-2.5,2.1-4.6,4.6-4.6H73
			c2.5,0,4.6,2.1,4.6,4.6V60H61.7c-4.2,0-7.6,3.4-7.6,7.6s3.4,7.6,7.6,7.6h15.9v8.2c0,2.5-2.1,4.6-4.6,4.6H30.3
			c-2.5,0-4.6-2.1-4.6-4.6v-9c0-0.8-0.7-1.5-1.5-1.5c-0.8,0-1.5,0.7-1.5,1.5v9c0,4.2,3.4,7.6,7.6,7.6h49.4c4.2,0,7.6-3.4,7.6-7.6
			V51.8C87.3,47.6,83.9,44.2,79.7,44.2L79.7,44.2z M43.9,32.6c3.2,0,5.8,2.6,5.8,5.8s-2.6,5.8-5.8,5.8c-3.2,0-5.8-2.6-5.8-5.8
			S40.7,32.6,43.9,32.6z M79.1,47.2h0.6c2.5,0,4.6,2.1,4.6,4.6V60h-3.7v-8.2C80.6,50.1,80,48.5,79.1,47.2L79.1,47.2z M57.1,67.6
			c0-2.5,2.1-4.6,4.6-4.6h22.6v9.1H61.7C59.2,72.2,57.1,70.2,57.1,67.6z M79.7,88.1h-0.6c1-1.3,1.5-2.9,1.5-4.6v-8.2h3.7v8.2
			C84.3,86,82.2,88.1,79.7,88.1z"/>
		<path id="XMLID_1260_" class="st1" d="M61.3,66.1c-0.4,0-0.8,0.2-1.1,0.4s-0.4,0.7-0.4,1.1c0,0.4,0.2,0.8,0.4,1.1
			c0.3,0.3,0.7,0.4,1.1,0.4c0.4,0,0.8-0.2,1.1-0.4c0.3-0.3,0.4-0.7,0.4-1.1c0-0.4-0.2-0.8-0.4-1.1C62.1,66.3,61.7,66.1,61.3,66.1z"
			/>
		<path id="XMLID_1711_" class="st1" d="M66.1,33.9c4.9,0,8.8-4,8.8-8.8c0-4.9-4-8.8-8.8-8.8c-4.9,0-8.8,4-8.8,8.8
			S61.2,33.9,66.1,33.9z M66.1,19.3c3.2,0,5.8,2.6,5.8,5.8s-2.6,5.8-5.8,5.8c-3.2,0-5.8-2.6-5.8-5.8S62.9,19.3,66.1,19.3z"/>
		<path id="XMLID_1712_" class="st1" d="M51.2,27.9c0.8,0,1.5-0.7,1.5-1.5v-12c0-0.8-0.7-1.5-1.5-1.5c-0.8,0-1.5,0.7-1.5,1.5v12
			C49.7,27.2,50.4,27.9,51.2,27.9z"/>
		<path id="XMLID_1757_" class="st1" d="M43.9,22.6c0.8,0,1.5-0.7,1.5-1.5v-6.7c0-0.8-0.7-1.5-1.5-1.5s-1.5,0.7-1.5,1.5v6.7
			C42.4,22,43,22.6,43.9,22.6z"/>
		<path id="XMLID_1760_" class="st1" d="M24.2,69.2c0.4,0,0.8-0.2,1.1-0.4s0.4-0.7,0.4-1.1c0-0.4-0.2-0.8-0.4-1.1
			c-0.3-0.3-0.7-0.4-1.1-0.4c-0.4,0-0.8,0.2-1.1,0.4s-0.4,0.7-0.4,1.1c0,0.4,0.2,0.8,0.4,1.1C23.4,69,23.8,69.2,24.2,69.2z"/>
	</g>
</g>
</svg>
