<?xml version="1.0" encoding="utf-8"?>
<!-- Generator: Adobe Illustrator 24.0.2, SVG Export Plug-In . SVG Version: 6.00 Build 0)  -->
<svg version="1.1" id="Layer_1" xmlns="http://www.w3.org/2000/svg" xmlns:xlink="http://www.w3.org/1999/xlink" x="0px" y="0px"
	 viewBox="0 0 82 82" style="enable-background:new 0 0 82 82;" xml:space="preserve">
<style type="text/css">
	.st0{fill:#E4FFEE;}
	.st1{fill:#3DABDD;}
</style>
<path class="st0" d="M54,0H28C12.5,0,0,12.5,0,28v26c0,15.5,12.5,28,28,28h26c15.5,0,28-12.5,28-28V28C82,12.5,69.5,0,54,0z"/>
<g>
	<g>
		<path class="st1" d="M66.9,26C66.9,26,66.9,26,66.9,26L56.4,15.5c-0.3-0.3-0.9-0.3-1.2,0l-4.9,4.9c-0.3,0.3-0.3,0.9,0,1.2l0.6,0.6
			l-0.4,0.4c-2,0.4-3.8,1.3-5.2,2.8l-2.7,2.7L41,26.6c-1.7-1.8-4.1-2.7-6.6-2.7h-2.3l-1-1l0.6-0.6c0.3-0.3,0.3-0.9,0-1.2l-4.9-4.9
			c-0.3-0.3-0.9-0.3-1.2,0L15.1,26.6c-0.3,0.3-0.3,0.9,0,1.2l4.9,4.9c0.3,0.3,0.9,0.3,1.2,0l0.6-0.6l0.4,0.4c0.4,2,1.3,3.8,2.8,5.2
			l6.3,6.3v4.2c0,2.5,1,4.8,2.7,6.6l1.6,1.6V58h-0.9c-0.5,0-0.9,0.4-0.9,0.9v7c0,0.5,0.4,0.9,0.9,0.9h14.9c0.5,0,0.9-0.4,0.9-0.9v-7
			c0-0.5-0.4-0.9-0.9-0.9h-0.9v-0.6c1.1-1.7,1.8-3.6,1.7-5.7v-5.3c0.6-0.1,1.1-0.3,1.5-0.7l4.3-4.3c1.7-1.8,2.7-4.1,2.7-6.6v-2.3
			l1-1l0.6,0.6c0.3,0.3,0.9,0.3,1.2,0l4.9-4.9C67.3,26.9,67.3,26.3,66.9,26z M21.2,30.3L20.6,31l-3.7-3.7l9.3-9.3l3.7,3.7l-0.6,0.6
			L21.2,30.3z M26.3,36.6c-1.2-1.2-2.1-2.8-2.3-4.6c0-0.2-0.1-0.4-0.2-0.5L23.1,31l3.4-3.4l3.4-3.4l1.2,1.2c0.2,0.2,0.4,0.3,0.6,0.3
			h2.7c2,0,3.9,0.8,5.4,2.2l1.5,1.5L40,30.6l-1.5-1.5c-0.3-0.3-0.9-0.3-1.2,0c-0.3,0.3-0.3,0.9,0,1.2l1.5,1.5l-3.4,3.4
			c-0.5,0.5-0.8,1.2-0.8,1.9c0,1,0.6,2,1.6,2.4c-0.3,0.6-0.4,1.2-0.3,1.8l-2.7-2.7c-0.3-0.3-0.9-0.4-1.2,0c-0.3,0.3-0.4,0.9,0,1.2
			c0,0,0,0,0,0l3.4,3.4c0.2,0.2,0.3,0.4,0.2,0.6c0,0.5-0.4,0.9-0.9,0.9c-0.2,0-0.5-0.1-0.6-0.2L26.3,36.6z M48.8,65H35.7v-5.2h13.1
			V65z M48.8,51.8c0,1.8-0.6,3.5-1.6,4.9c-0.1,0.1-0.2,0.3-0.2,0.5V58h-9.6v-1.7c0-0.2-0.1-0.5-0.3-0.6l-1.9-1.9
			c-1.4-1.4-2.2-3.3-2.2-5.4v-2.5c0.5,0.4,1.1,0.6,1.7,0.6h0c1.4,0,2.6-1.2,2.6-2.6c0-0.3-0.1-0.6-0.1-0.8c0.3,0.2,0.7,0.3,1.1,0.3
			c0.1,1.3,1.1,2.4,2.5,2.5c0.1,1.4,1.2,2.5,2.6,2.5h0c0.7,0,1.4-0.3,1.8-0.8l2.6-2.6c0.2,0.4,0.5,0.8,0.9,1.1L48.8,51.8L48.8,51.8z
			 M57.7,31.5c-0.2,0.2-0.3,0.4-0.3,0.6v2.7c0,2-0.8,3.9-2.2,5.4l-4.3,4.3c-0.2,0.2-0.4,0.3-0.6,0.2c-0.5,0-0.9-0.4-0.9-0.9
			c0-0.2,0.1-0.4,0.2-0.6l0,0L54,39c0.3-0.3,0.3-0.9,0-1.2c-0.3-0.3-0.9-0.3-1.2,0l-3.1,3.1L48.4,42l-4.3,4.3
			c-0.2,0.2-0.4,0.3-0.6,0.2c-0.5,0-0.9-0.4-0.9-0.9c0-0.2,0.1-0.4,0.3-0.6l5.6-5.6c0.3-0.3,0.3-0.9,0-1.2c-0.3-0.3-0.9-0.3-1.2,0
			l-5.6,5.6c-0.2,0.2-0.4,0.3-0.6,0.2c-0.5,0-0.9-0.4-0.9-0.9c0-0.2,0.1-0.5,0.2-0.6l5.6-5.6c0.3-0.3,0.3-0.9,0-1.2
			c-0.3-0.3-0.9-0.3-1.2,0l-5.6,5.6c-0.2,0.2-0.4,0.2-0.6,0.2h0c-0.5,0-0.9-0.4-0.9-0.9c0-0.2,0.1-0.4,0.2-0.6l5.6-5.6
			c0.3-0.3,0.3-0.9,0-1.2c-0.3-0.3-0.9-0.3-1.2,0l-3.8,3.8l-0.6,0.6c-0.2,0.2-0.4,0.2-0.6,0.2c-0.5,0-0.9-0.4-0.9-0.9
			c0-0.2,0.1-0.4,0.2-0.6l9.8-9.8c1.2-1.2,2.8-2.1,4.6-2.3c0.2,0,0.4-0.1,0.5-0.2l0.6-0.6l6.8,6.8L57.7,31.5z M61.4,30.3L52.1,21
			l3.7-3.7l9.3,9.3L61.4,30.3z"/>
	</g>
</g>
</svg>
