<?xml version="1.0" encoding="utf-8"?>
<!-- Generator: Adobe Illustrator 24.0.2, SVG Export Plug-In . SVG Version: 6.00 Build 0)  -->
<svg version="1.1" id="Layer_1" xmlns="http://www.w3.org/2000/svg" xmlns:xlink="http://www.w3.org/1999/xlink" x="0px" y="0px"
	 viewBox="0 0 110 110" style="enable-background:new 0 0 110 110;" xml:space="preserve">
<style type="text/css">
	.st0{opacity:0.102;fill:#FF4361;enable-background:new    ;}
	.st1{fill:#FF4361;}
</style>
<path class="st0" d="M75,0H35C15.7,0,0,15.7,0,35v40c0,19.3,15.7,35,35,35h40c19.3,0,35-15.7,35-35V35C110,15.7,94.3,0,75,0z"/>
<g>
	<path class="st1" d="M88.9,53.5c0-18.7-15.2-33.9-33.9-33.9c-18.7,0-33.9,15.2-33.9,33.9c0,14.8,9.5,27.8,23.6,32.3
		c0.1,0,0.3,0.1,0.4,0.1c0.3,0,0.5-0.1,0.8-0.2c0.3-0.2,0.5-0.5,0.6-0.8L55,57.7c2.3,0,4.2-1.9,4.2-4.3c0-2.3-1.9-4.2-4.3-4.2
		c-0.6,0-1.3,0.1-1.8,0.4L41.9,38.3c-0.6-0.5-1.5-0.5-2,0c-0.5,0.5-0.5,1.4,0,2l11.3,11.3c-0.9,1.8-0.4,3.9,1.2,5.1l-8.2,25.9
		c-16.1-5.9-24.4-23.8-18.5-40s23.8-24.4,40-18.5s24.4,23.8,18.5,40c-2.9,7.9-8.9,14.3-16.5,17.7l-0.9-4.2c-0.2-0.8-0.9-1.3-1.7-1.1
		c-0.2,0.1-0.5,0.2-0.6,0.3l-8.5,7.6c-0.6,0.5-0.6,1.4-0.1,2c0.2,0.2,0.4,0.3,0.6,0.4l10.9,3.5c0.7,0.2,1.5-0.2,1.8-0.9
		c0.1-0.2,0.1-0.5,0-0.7l-0.9-4.1C80.8,79.4,89,67.1,88.9,53.5z M55,52c0.8,0,1.4,0.6,1.4,1.4c0,0.8-0.6,1.4-1.4,1.4
		c-0.8,0-1.4-0.6-1.4-1.4C53.6,52.7,54.2,52,55,52z M59.7,85l4.8-4.3l1.3,6.3L59.7,85z"/>
	<path class="st1" d="M53.6,26.6v2.8c0,0.8,0.6,1.4,1.4,1.4c0.8,0,1.4-0.6,1.4-1.4v-2.8c0-0.8-0.6-1.4-1.4-1.4
		C54.2,25.2,53.6,25.8,53.6,26.6z"/>
	<path class="st1" d="M28.1,52c-0.8,0-1.4,0.6-1.4,1.4c0,0.8,0.6,1.4,1.4,1.4H31c0.8,0,1.4-0.6,1.4-1.4c0-0.8-0.6-1.4-1.4-1.4H28.1z
		"/>
	<path class="st1" d="M81.9,54.9c0.8,0,1.4-0.6,1.4-1.4c0-0.8-0.6-1.4-1.4-1.4H79c-0.8,0-1.4,0.6-1.4,1.4c0,0.8,0.6,1.4,1.4,1.4
		H81.9z"/>
</g>
</svg>
