<?xml version="1.0" encoding="utf-8"?>
<!-- Generator: Adobe Illustrator 24.0.2, SVG Export Plug-In . SVG Version: 6.00 Build 0)  -->
<svg version="1.1" id="Layer_1" xmlns="http://www.w3.org/2000/svg" xmlns:xlink="http://www.w3.org/1999/xlink" x="0px" y="0px"
	 viewBox="0 0 82 82" style="enable-background:new 0 0 82 82;" xml:space="preserve">
<style type="text/css">
	.st0{opacity:0.122;fill:#E97425;enable-background:new    ;}
	.st1{fill:#606060;}
</style>
<path class="st0" d="M54,0H28C12.5,0,0,12.5,0,28v26c0,15.5,12.5,28,28,28h26c15.5,0,28-12.5,28-28V28C82,12.5,69.5,0,54,0z"/>
<g>
	<circle class="st1" cx="40.1" cy="34" r="1.8"/>
	<circle class="st1" cx="50.6" cy="34" r="1.8"/>
	<path class="st1" d="M61,52.5L52.4,50v-3c2.2-1.7,4.1-4.1,4.9-6.8h2.6c1.7,0,3.1-1.4,3.1-3.1v-5.3c0-1.7-1.4-3.1-3.1-3.1h-2.2V27
		c0-6.8-5.5-12.3-12.3-12.3S33.1,20.2,33.1,27v1.8h-2.2c-1.7,0-3.1,1.4-3.1,3.1v5.3c0,1.7,1.4,3.1,3.1,3.1h0.4v3.5
		c0,0.5,0.4,0.9,0.9,0.9h3.6c0.7,0.9,1.6,1.7,2.5,2.4v3l-1.8,0.5v-2c0-1.2-1-2.2-2.2-2.2H16c-1.2,0-2.2,1-2.2,2.2v13.1
		c0,1.2,1,2.2,2.2,2.2h4.5l-0.4,1.8h-1.9c-0.5,0-0.9,0.4-0.9,0.9s0.4,0.9,0.9,0.9h49.1c0.5,0,0.9-0.4,0.9-0.9v-4.6
		C68.2,57.4,65.2,53.6,61,52.5z M60.3,30.6c0.5,0.2,0.9,0.7,0.9,1.2v5.3c0,0.6-0.4,1.1-0.9,1.2V30.6z M57.6,30.5h0.9v7.9h-0.9V30.5z
		 M30.5,38.3c-0.5-0.2-0.9-0.7-0.9-1.2v-5.3c0-0.6,0.4-1.1,0.9-1.2V38.3z M53.9,52.2l-3.6,6.9l-3.5-1.7l5-5.7L53.9,52.2z M45.4,56.3
		l-5.3-6v-2.2c1.8,1,3.7,1.6,5.3,1.6s3.5-0.6,5.3-1.6v2.2L45.4,56.3z M34.9,27c0-5.8,4.7-10.5,10.5-10.5S55.9,21.2,55.9,27v3
		c-1.9-0.6-3.4-1.8-4.5-3.5c-0.3-0.4-0.8-0.5-1.2-0.3c-0.1,0-6.5,3.9-15.3,4.1L34.9,27z M32.2,30.5h0.9v7.9h-0.9V30.5z M33.1,42.8
		v-2.6h0.4c0.3,0.9,0.6,1.8,1.1,2.6H33.1z M38.2,44.5H42c0.4,1,1.4,1.8,2.5,1.8h1.8c1.5,0,2.6-1.2,2.6-2.6S47.7,41,46.3,41h-1.8
		c-1.1,0-2.1,0.7-2.5,1.8h-5.3c-1.5-2.2-1.8-4.1-1.8-5.3v-5.4c7.7-0.2,13.6-2.9,15.5-4c1.4,1.8,3.3,3.1,5.5,3.6v5.7
		c0,1.5-0.5,4.5-3.8,7.4C50,46.8,47.4,48,45.4,48s-4.6-1.2-6.8-3.1C38.5,44.8,38.3,44.6,38.2,44.5z M43.6,43.6
		c0-0.5,0.4-0.9,0.9-0.9h1.8c0.5,0,0.9,0.4,0.9,0.9s-0.4,0.9-0.9,0.9h-1.8C44,44.5,43.6,44.1,43.6,43.6z M39,51.6l5,5.7l-3.5,1.7
		l-3.6-6.9L39,51.6z M21.9,65.5l0.5-2.5v0l0.8-3.7h3.9l0.8,3.7v0l0.5,2.5H21.9z M29.5,62l-0.8-3.7c-0.1-0.4-0.4-0.7-0.9-0.7h-5.3
		c-0.4,0-0.8,0.3-0.9,0.7L20.9,62H16c-0.2,0-0.4-0.2-0.4-0.4V48.4c0-0.2,0.2-0.4,0.4-0.4h18.4c0.2,0,0.4,0.2,0.4,0.4v13.1
		c0,0.2-0.2,0.4-0.4,0.4H29.5z M42.1,65.5H30.3l-0.4-1.8h4.5c1.2,0,2.2-1,2.2-2.2v-6.1l2.7,5.2c0.2,0.4,0.7,0.6,1.2,0.4l0.6-0.3
		l1.5,3.1L42.1,65.5z M44,65.5l0.3-0.9h2.3l0.3,0.9H44z M46.6,62.9h-2.4L42.7,60l2.7-1.3l2.7,1.3L46.6,62.9z M66.4,65.5H62v-2.6
		c0-0.5-0.4-0.9-0.9-0.9s-0.9,0.4-0.9,0.9v2.6H48.7l-0.6-1.7l1.5-3.1l0.7,0.3c0.1,0.1,0.3,0.1,0.4,0.1c0.3,0,0.6-0.2,0.8-0.5
		l4.2-7.9l4.9,1.4c0,0,0,0,0,0c3.5,0.9,5.9,4,5.9,7.6V65.5z"/>
	<path class="st1" d="M15.6,65.5h-0.9c-0.5,0-0.9,0.4-0.9,0.9s0.4,0.9,0.9,0.9h0.9c0.5,0,0.9-0.4,0.9-0.9S16.1,65.5,15.6,65.5z"/>
</g>
</svg>
