<?xml version="1.0" encoding="utf-8"?>
<!-- Generator: Adobe Illustrator 24.0.2, SVG Export Plug-In . SVG Version: 6.00 Build 0)  -->
<svg version="1.1" id="Layer_1" xmlns="http://www.w3.org/2000/svg" xmlns:xlink="http://www.w3.org/1999/xlink" x="0px" y="0px"
	 viewBox="0 0 82 82" style="enable-background:new 0 0 82 82;" xml:space="preserve">
<style type="text/css">
	.st0{fill:#F4F4FF;}
	.st1{fill:#5856D6;}
</style>
<g>
	<path class="st0" d="M54,0H28C12.5,0,0,12.5,0,28v26c0,15.5,12.5,28,28,28h26c15.5,0,28-12.5,28-28V28C82,12.5,69.5,0,54,0z"/>
	<g id="Database_Security">
		<path class="st1" d="M41,17.4c-9.5,0-19.7,2.2-19.7,6.3v34.6c0,4.1,10.1,6.3,19.7,6.3s19.7-2.2,19.7-6.3V23.7
			C60.7,19.6,50.5,17.4,41,17.4z M41,19c11.2,0,18.1,2.8,18.1,4.7s-6.9,4.7-18.1,4.7s-18.1-2.7-18.1-4.7S29.8,19,41,19z M22.9,37.3
			c2.3,1.7,6.7,2.8,11,3.3v4.3h-1.6C31,44.9,30,46,30,47.3V51c-4.9-1-7.1-2.6-7.1-3.7V37.3z M49.7,46.5c0.4,0,0.8,0.4,0.8,0.8v11
			c0,0.4-0.4,0.8-0.8,0.8H32.3c-0.4,0-0.8-0.4-0.8-0.8v-11c0-0.4,0.4-0.8,0.8-0.8H49.7z M43.4,39.4c-1.5,0.1-3.2,0.1-4.7,0v-1.5
			c0-0.4,0.4-0.8,0.8-0.8h3.1c0.4,0,0.8,0.4,0.8,0.8V39.4z M38.6,41c0.8,0,1.5,0,2.4,0s1.6,0,2.4,0v4h-4.7V41z M46.5,44.9h-1.6v-7.1
			c0-1.3-1.1-2.4-2.4-2.4h-3.1c-1.3,0-2.4,1.1-2.4,2.4v7.1h-1.6v-8.7c0-1.3,1.1-2.4,2.4-2.4h6.3c1.3,0,2.4,1.1,2.4,2.4V44.9z M41,63
			c-11.2,0-18.1-2.7-18.1-4.7v-8.4c1.8,1.4,4.8,2.2,7.1,2.7v5.7c0,1.3,1.1,2.4,2.4,2.4h17.3c1.3,0,2.4-1.1,2.4-2.4v-5.7
			c2.3-0.5,5.3-1.3,7.1-2.7v8.4C59.1,60.3,52.2,63,41,63z M52,51v-3.7c0-1.3-1.1-2.4-2.4-2.4h-1.6v-4.3c4.3-0.5,8.7-1.6,11-3.3v10
			C59.1,48.4,56.9,49.9,52,51z M48.1,39v-2.7c0-2.2-1.8-3.9-3.9-3.9h-6.3c-2.2,0-3.9,1.8-3.9,3.9V39c-7.2-0.9-11-2.8-11-4.3v-8.4
			C26.1,28.7,33.7,30,41,30s14.9-1.3,18.1-3.7v8.4C59.1,36.2,55.2,38.2,48.1,39z"/>
		<path class="st1" d="M40.2,54.3v3.3h1.6v-3.3c1.7-0.4,2.7-2.2,2.3-3.8c-0.4-1.7-2.2-2.7-3.8-2.3S37.5,50.3,38,52
			C38.2,53.1,39.1,54,40.2,54.3z M41,49.7c0.9,0,1.6,0.7,1.6,1.6s-0.7,1.6-1.6,1.6s-1.6-0.7-1.6-1.6S40.1,49.7,41,49.7z"/>
	</g>
</g>
</svg>
