<?xml version="1.0" encoding="utf-8"?>
<!-- Generator: Adobe Illustrator 24.0.2, SVG Export Plug-In . SVG Version: 6.00 Build 0)  -->
<svg version="1.1" id="Layer_1" xmlns="http://www.w3.org/2000/svg" xmlns:xlink="http://www.w3.org/1999/xlink" x="0px" y="0px"
	 viewBox="0 0 82 82" style="enable-background:new 0 0 82 82;" xml:space="preserve">
<style type="text/css">
	.st0{opacity:0.102;fill:#FF4361;enable-background:new    ;}
	.st1{fill:#333333;}
</style>
<path class="st0" d="M54,0H28C12.5,0,0,12.5,0,28v26c0,15.5,12.5,28,28,28h26c15.5,0,28-12.5,28-28V28C82,12.5,69.5,0,54,0z"/>
<g>
	<g>
		<g>
			<path class="st1" d="M53.1,23.7h-3.7V22c0-0.5-0.6-0.8-1.1-0.8h-2.9c-0.7-2-2.4-3-4.4-3c-2-0.1-3.7,1.1-4.4,3h-2.9
				c-0.5,0-1.1,0.2-1.1,0.8v1.7h-3.7c-2.2,0-4,1.8-4.1,4V56c0,2.2,2,3.7,4.1,3.7h24.3c2.2,0,4.1-1.6,4.1-3.7V27.7
				C57.2,25.5,55.4,23.7,53.1,23.7z M34.6,23.2h2.7c0.5-0.1,0.9-0.4,0.9-0.9c0.3-1.3,1.4-2.2,2.7-2.2c1.3,0,2.4,1,2.7,2.2
				c0.1,0.5,0.5,0.9,1,0.9h2.8v3.9H34.6V23.2z M55.3,56c0,1.1-1.1,1.8-2.2,1.8H28.9c-1.1,0-2.2-0.7-2.2-1.8V27.7c0.1-1.1,1-2,2.2-2
				h3.7v2.5c0.1,0.6,0.5,1,1.1,0.9h14.6c0.6,0,1.1-0.4,1.1-0.9v-2.5h3.7c1.1,0,2.1,0.9,2.2,2L55.3,56L55.3,56z"/>
			<path class="st1" d="M37.2,40.3c-0.4-0.4-1-0.4-1.4,0l-3.2,3l-1.3-1.4c-0.4-0.4-1-0.4-1.4,0c-0.4,0.4-0.4,1,0,1.4l2,2.1
				c0.2,0.2,0.4,0.3,0.7,0.3c0.3,0,0.5-0.1,0.7-0.3l3.8-3.7C37.6,41.4,37.6,40.8,37.2,40.3C37.2,40.4,37.2,40.4,37.2,40.3z"/>
			<path class="st1" d="M51.4,42.5H40c-0.5,0-1,0.4-1,1s0.4,1,1,1h11.3c0.5,0,1-0.4,1-1S51.9,42.5,51.4,42.5z"/>
			<path class="st1" d="M37.2,32.4c-0.4-0.4-1-0.4-1.4,0l-3.2,3L31.3,34c-0.4-0.4-1-0.4-1.4,0c-0.4,0.4-0.4,1,0,1.4l2,2.1
				c0.2,0.2,0.4,0.3,0.7,0.3c0.3,0,0.5-0.1,0.7-0.3l3.8-3.7C37.6,33.5,37.6,32.9,37.2,32.4C37.2,32.5,37.2,32.5,37.2,32.4z"/>
			<path class="st1" d="M51.4,34.6H40c-0.5,0-1,0.4-1,1c0,0.5,0.4,1,1,1h11.3c0.5,0,1-0.4,1-1C52.3,35,51.9,34.6,51.4,34.6z"/>
			<path class="st1" d="M37.2,48.2c-0.4-0.4-1-0.4-1.4,0l-3.2,3l-1.3-1.4c-0.4-0.4-1-0.4-1.4,0c-0.4,0.4-0.4,1,0,1.4l2,2.1
				c0.2,0.2,0.4,0.3,0.7,0.3c0.3,0,0.5-0.1,0.7-0.3l3.8-3.7C37.6,49.3,37.6,48.7,37.2,48.2C37.2,48.3,37.2,48.2,37.2,48.2z"/>
			<path class="st1" d="M51.4,50.3H40c-0.5,0-1,0.4-1,1s0.4,1,1,1h11.3c0.5,0,1-0.4,1-1S51.9,50.3,51.4,50.3z"/>
		</g>
	</g>
</g>
</svg>
