<?xml version="1.0" encoding="utf-8"?>
<!-- Generator: Adobe Illustrator 24.0.2, SVG Export Plug-In . SVG Version: 6.00 Build 0)  -->
<svg version="1.1" id="Layer_1" xmlns="http://www.w3.org/2000/svg" xmlns:xlink="http://www.w3.org/1999/xlink" x="0px" y="0px"
	 viewBox="0 0 82 82" style="enable-background:new 0 0 82 82;" xml:space="preserve">
<style type="text/css">
	.st0{fill:#EAF9FF;}
	.st1{fill:#3DABDD;}
</style>
<path class="st0" d="M54,0H28C12.5,0,0,12.5,0,28v26c0,15.5,12.5,28,28,28h26c15.5,0,28-12.5,28-28V28C82,12.5,69.5,0,54,0z"/>
<g>
	<g>
		<path class="st1" d="M42.9,43.6H21.8c-0.4,0-0.8,0.3-0.8,0.8c0,0.4,0.3,0.8,0.8,0.8h21.1c0.4,0,0.8-0.3,0.8-0.8
			C43.7,44,43.3,43.6,42.9,43.6z"/>
		<path class="st1" d="M42.9,48.5H21.8c-0.4,0-0.8,0.3-0.8,0.8c0,0.4,0.3,0.8,0.8,0.8h21.1c0.4,0,0.8-0.3,0.8-0.8
			C43.7,48.8,43.3,48.5,42.9,48.5z"/>
		<path class="st1" d="M32.3,53.3H21.8c-0.4,0-0.8,0.3-0.8,0.8c0,0.4,0.3,0.8,0.8,0.8h10.5c0.4,0,0.8-0.3,0.8-0.8
			S32.8,53.3,32.3,53.3z"/>
		<path class="st1" d="M63.1,33.9H42.1c-0.4,0-0.8,0.3-0.8,0.8c0,0.4,0.3,0.8,0.8,0.8h21.1c0.4,0,0.8-0.3,0.8-0.8
			C63.9,34.2,63.6,33.9,63.1,33.9z"/>
		<path class="st1" d="M63.1,38.8H52.6c-0.4,0-0.8,0.3-0.8,0.8s0.3,0.8,0.8,0.8h10.5c0.4,0,0.8-0.3,0.8-0.8S63.6,38.8,63.1,38.8z"/>
		<path class="st1" d="M20,20.6h15.4c0.4,0,0.8-0.3,0.8-0.8c0-0.4-0.3-0.8-0.8-0.8H20c-0.4,0-0.8,0.3-0.8,0.8
			C19.3,20.3,19.6,20.6,20,20.6z"/>
		<path class="st1" d="M20,24.4h7.7c0.4,0,0.8-0.3,0.8-0.8c0-0.4-0.3-0.8-0.8-0.8H20c-0.4,0-0.8,0.3-0.8,0.8
			C19.3,24.1,19.6,24.4,20,24.4z"/>
		<path class="st1" d="M44.4,37.9H20.3c-2.7,0-5,2.2-5,5v12.5c0,2.7,2.2,5,5,5h0.2l-1,5.5c-0.1,0.5,0.2,1,0.6,1.3
			c0.5,0.3,1,0.2,1.4-0.2l6.8-6.5c0.1-0.1,0.3-0.2,0.4-0.2h15.7c2.7,0,5-2.2,5-5V42.9C49.4,40.1,47.2,37.9,44.4,37.9L44.4,37.9z
			 M47.9,55.3c0,1.9-1.5,3.4-3.4,3.4H28.7c-0.5,0-1.1,0.2-1.5,0.6l-6.1,5.8l0.9-4.8c0.1-0.8-0.5-1.6-1.3-1.6h-0.4
			c-1.9,0-3.4-1.5-3.4-3.4V42.9c0-1.9,1.5-3.4,3.4-3.4h24.2c1.9,0,3.4,1.5,3.4,3.4V55.3z"/>
		<path class="st1" d="M18.3,28.4H24c0,0,0,0,0,0l2.5,4.2c0.3,0.4,0.7,0.7,1.2,0.7c0.5,0,1-0.3,1.2-0.7l2.5-4.2c0,0,0,0,0,0h5.7
			c1.6,0,3-1.3,3-3v-7.7c0-1.6-1.3-3-3-3H18.3c-1.6,0-3,1.3-3,3V18c0,0.4,0.3,0.8,0.8,0.8c0.4,0,0.8-0.3,0.8-0.8v-0.3
			c0-0.8,0.6-1.4,1.4-1.4h18.9c0.8,0,1.4,0.6,1.4,1.4v7.7c0,0.8-0.6,1.4-1.4,1.4h-5.7c-0.6,0-1.1,0.3-1.4,0.8l-2.3,4l-2.3-4
			c-0.3-0.5-0.8-0.8-1.4-0.8h-5.7c-0.8,0-1.4-0.6-1.4-1.4v-3.8c0-0.4-0.3-0.8-0.8-0.8c-0.4,0-0.8,0.3-0.8,0.8v3.8
			C15.3,27.1,16.7,28.4,18.3,28.4L18.3,28.4z"/>
		<path class="st1" d="M63.3,29.2H41.9c-2.5,0-4.5,2-4.5,4.5v1.4c0,0.4,0.3,0.8,0.8,0.8s0.8-0.3,0.8-0.8v-1.4c0-1.6,1.3-3,3-3h21.5
			c1.6,0,3,1.3,3,3v10.9c0,1.6-1.3,3-3,3H63c-0.8,0-1.4,0.7-1.3,1.5l0.7,4l-5.2-5c-0.4-0.4-0.9-0.5-1.4-0.5h-3.6
			c-0.4,0-0.8,0.3-0.8,0.8s0.3,0.8,0.8,0.8h3.6c0.1,0,0.2,0,0.3,0.1l6,5.7c0.4,0.3,0.9,0.4,1.4,0.2c0.4-0.2,0.7-0.7,0.6-1.2
			l-0.9-4.8h0.1c2.5,0,4.5-2,4.5-4.5V33.7C67.8,31.2,65.8,29.2,63.3,29.2L63.3,29.2z"/>
	</g>
</g>
</svg>
