<?xml version="1.0" encoding="utf-8"?>
<!-- Generator: Adobe Illustrator 24.0.2, SVG Export Plug-In . SVG Version: 6.00 Build 0)  -->
<svg version="1.1" id="Layer_1" xmlns="http://www.w3.org/2000/svg" xmlns:xlink="http://www.w3.org/1999/xlink" x="0px" y="0px"
	 viewBox="0 0 110 110" style="enable-background:new 0 0 110 110;" xml:space="preserve">
<style type="text/css">
	.st0{opacity:9.000000e-02;fill:#2563FF;enable-background:new    ;}
	.st1{fill:#F58735;}
</style>
<path class="st0" d="M75,0H35C15.7,0,0,15.7,0,35v40c0,19.3,15.7,35,35,35h40c19.3,0,35-15.7,35-35V35C110,15.7,94.3,0,75,0z"/>
<g>
	<path class="st1" d="M55,56.1c3.9,0,7.1-3.2,7.1-7.1S58.9,42,55,42s-7.1,3.2-7.1,7.1S51.1,56.1,55,56.1z M55,44.3
		c2.6,0,4.7,2.1,4.7,4.7c0,2.6-2.1,4.7-4.7,4.7s-4.7-2.1-4.7-4.7C50.3,46.5,52.4,44.3,55,44.3z"/>
	<path class="st1" d="M38.2,53.1c-0.6,0-1.1,0.2-1.6,0.5c-1.8,1-2.4,3.3-1.4,5.1l1.6,2.7c1,1.8,3.3,2.4,5.1,1.4
		c0.5-0.3,0.9-0.7,1.2-1.2l1.7-2.6l2.3-1.3c1.3,1.2,2.8,2,4.4,2.6v2.6l-1.4,2.7c-0.3,0.5-0.4,1.1-0.4,1.7c0,2,1.7,3.7,3.7,3.7h3.2
		c2,0,3.7-1.7,3.7-3.7c0-0.6-0.1-1.1-0.4-1.7l-1.4-2.7v-2.6c1.6-0.5,3.1-1.4,4.4-2.6l2.3,1.3l1.7,2.6c0.3,0.5,0.7,0.9,1.2,1.2
		c0.9,0.5,1.9,0.6,2.8,0.4c1-0.3,1.8-0.9,2.3-1.7l1.6-2.7c0.5-0.9,0.6-1.9,0.4-2.8c-0.3-1-0.9-1.8-1.7-2.3c-0.5-0.3-1.1-0.5-1.6-0.5
		l-3.1-0.2l-2.3-1.3c0.2-0.8,0.3-1.7,0.3-2.6c0-0.9-0.1-1.7-0.3-2.6l2.3-1.3l3.1-0.2c0.6,0,1.1-0.2,1.6-0.5c1.8-1,2.4-3.3,1.4-5.1
		l-1.6-2.7c-0.5-0.9-1.3-1.5-2.3-1.7c-1-0.3-2-0.1-2.8,0.4c-0.5,0.3-0.9,0.7-1.2,1.2l-1.7,2.6l-2.3,1.3c-1.3-1.2-2.8-2-4.4-2.6v-2.6
		l1.4-2.7c0.3-0.5,0.4-1.1,0.4-1.7c0-2-1.7-3.7-3.7-3.7h-3.2c-2,0-3.7,1.7-3.7,3.7c0,0.6,0.1,1.1,0.4,1.7l1.4,2.7v2.6
		c-1.6,0.5-3.1,1.4-4.4,2.6l-2.3-1.3l-1.7-2.6c-0.3-0.5-0.7-0.9-1.2-1.2C41,34.9,40,34.7,39,35c-1,0.3-1.8,0.9-2.3,1.7l-1.6,2.7
		c-0.5,0.9-0.6,1.9-0.4,2.8c0.3,1,0.9,1.8,1.7,2.3c0.5,0.3,1.1,0.5,1.6,0.5l3.1,0.2l2.3,1.3c-0.2,0.8-0.3,1.7-0.3,2.6
		c0,0.9,0.1,1.7,0.3,2.6l-2.3,1.3L38.2,53.1z M42.2,55.1l3.3-1.9c0.5-0.3,0.7-0.8,0.5-1.4c-0.3-0.9-0.4-1.8-0.4-2.8
		c0-0.9,0.1-1.9,0.4-2.8c0.2-0.5-0.1-1.1-0.5-1.4L42.2,43c-0.2-0.1-0.3-0.1-0.5-0.2l-3.3-0.2c-0.2,0-0.4-0.1-0.6-0.2
		c-0.3-0.2-0.5-0.5-0.6-0.8s0-0.7,0.1-1l1.6-2.7c0.2-0.3,0.5-0.5,0.8-0.6c0.4-0.1,0.7,0,1,0.1c0.2,0.1,0.3,0.3,0.5,0.4l1.8,2.8
		c0.1,0.2,0.2,0.3,0.4,0.4l3.3,1.9c0.5,0.3,1.1,0.2,1.4-0.2c1.3-1.4,3-2.4,4.8-2.8c0.5-0.1,0.9-0.6,0.9-1.1v-3.8
		c0-0.2,0-0.4-0.1-0.5l-1.5-3c-0.1-0.2-0.1-0.4-0.1-0.6c0-0.8,0.6-1.4,1.4-1.4h3.2c0.8,0,1.4,0.6,1.4,1.4c0,0.2,0,0.4-0.1,0.6
		l-1.5,3c-0.1,0.2-0.1,0.3-0.1,0.5v3.8c0,0.5,0.4,1,0.9,1.1c1.8,0.4,3.5,1.4,4.8,2.8c0.4,0.4,1,0.5,1.4,0.2l3.3-1.9
		c0.2-0.1,0.3-0.2,0.4-0.4l1.8-2.8c0.1-0.2,0.3-0.3,0.5-0.4c0.3-0.2,0.7-0.2,1-0.1c0.4,0.1,0.6,0.3,0.8,0.6l1.6,2.7
		c0.4,0.6,0.2,1.5-0.5,1.9c-0.2,0.1-0.4,0.2-0.6,0.2l-3.3,0.2c-0.2,0-0.4,0.1-0.5,0.2l-3.3,1.9c-0.5,0.3-0.7,0.8-0.5,1.4
		c0.3,0.9,0.4,1.8,0.4,2.8s-0.1,1.9-0.4,2.8c-0.2,0.5,0.1,1.1,0.5,1.4l3.3,1.9c0.2,0.1,0.3,0.1,0.5,0.2l3.3,0.2
		c0.2,0,0.4,0.1,0.6,0.2c0.3,0.2,0.5,0.5,0.6,0.8c0.1,0.4,0,0.7-0.1,1l-1.6,2.7c-0.4,0.6-1.2,0.9-1.9,0.5c-0.2-0.1-0.3-0.3-0.5-0.4
		L67,57.5c-0.1-0.2-0.2-0.3-0.4-0.4l-3.3-1.9c-0.5-0.3-1.1-0.2-1.4,0.2c-1.3,1.4-3,2.4-4.8,2.8c-0.5,0.1-0.9,0.6-0.9,1.1v3.8
		c0,0.2,0,0.4,0.1,0.5l1.5,3c0.1,0.2,0.1,0.4,0.1,0.6c0,0.8-0.6,1.4-1.4,1.4h-3.2c-0.8,0-1.4-0.6-1.4-1.4c0-0.2,0-0.4,0.1-0.6l1.5-3
		c0.1-0.2,0.1-0.3,0.1-0.5v-3.8c0-0.5-0.4-1-0.9-1.1c-1.8-0.4-3.5-1.4-4.8-2.8c-0.2-0.2-0.5-0.4-0.9-0.4c-0.2,0-0.4,0.1-0.6,0.2
		l-3.3,1.9c-0.2,0.1-0.3,0.2-0.4,0.4l-1.8,2.8c-0.1,0.2-0.3,0.3-0.5,0.4c-0.6,0.4-1.5,0.2-1.9-0.5l-1.6-2.7
		c-0.4-0.6-0.2-1.5,0.5-1.9c0.2-0.1,0.4-0.2,0.6-0.2l3.3-0.2C41.9,55.2,42,55.2,42.2,55.1L42.2,55.1z"/>
	<path class="st1" d="M89.8,24.3c-10.6-6.2-22.6-9.4-34.8-9.4s-24.3,3.3-34.8,9.4c-0.4,0.2-0.6,0.6-0.6,1v15.6
		c0,11.6,3.4,22.9,9.7,32.6c6.2,9.4,14.9,16.9,25.2,21.5c0.2,0.1,0.3,0.1,0.5,0.1c0.2,0,0.3,0,0.5-0.1c10.3-4.6,19-12.1,25.2-21.5
		c6.4-9.7,9.7-21,9.7-32.6V25.3C90.4,24.9,90.2,24.5,89.8,24.3L89.8,24.3z M88.1,40.9c0,22.2-13,42.4-33.1,51.8
		c-20.1-9.3-33.1-29.6-33.1-51.8V26c20.5-11.7,45.7-11.7,66.1,0V40.9z"/>
	<path class="st1" d="M27.3,28.5c-0.4,0.2-0.7,0.6-0.7,1.1v11.4c0,9.4,2.5,18.6,7.3,26.7c0.3,0.6,1.1,0.7,1.6,0.4
		c0.6-0.3,0.7-1.1,0.4-1.6c-4.6-7.7-7-16.5-7-25.5V30.2c8.1-3.9,17.1-6,26-6s17.9,2.1,26,6v10.6c0,9.8-2.8,19.3-8.2,27.4
		C68.3,75.2,62.2,80.8,55,84.8c-6.5-3.5-12.2-8.6-16.5-14.5c-0.4-0.5-1.1-0.6-1.6-0.3c-0.5,0.4-0.6,1.1-0.3,1.6
		c4.7,6.4,10.9,11.8,17.9,15.5c0.2,0.1,0.4,0.1,0.6,0.1c0.2,0,0.4,0,0.6-0.1C63.3,83,69.9,77,74.8,69.6c5.6-8.5,8.6-18.5,8.6-28.7
		V29.5c0-0.4-0.3-0.9-0.7-1.1c-8.6-4.3-18.2-6.5-27.7-6.5C45.4,21.9,35.9,24.2,27.3,28.5L27.3,28.5z"/>
</g>
</svg>
